<svg width="25" height="24" viewBox="0 0 25 24" fill="none" xmlns="http://www.w3.org/2000/svg">
<path d="M3.5 14H5.5V21C5.5 21.553 5.948 22 6.5 22H18.5C19.053 22 19.5 21.553 19.5 21V14H21.5C21.895 14 22.253 13.768 22.413 13.407C22.574 13.046 22.508 12.624 22.243 12.331L13.243 2.33103C12.864 1.90903 12.136 1.90903 11.757 2.33103L2.757 12.331C2.493 12.624 2.426 13.046 2.586 13.407C2.747 13.768 3.105 14 3.5 14ZM9.449 13.684C9.48 13.779 10.262 16 12.5 16C14.769 16 15.542 13.713 15.55 13.689L17.45 14.31C17.401 14.461 16.203 18 12.5 18C8.797 18 7.599 14.461 7.55 14.311L9.449 13.684Z" fill="#2483F0"/>
</svg>
