<svg width="21" height="20" viewBox="0 0 21 20" fill="none" xmlns="http://www.w3.org/2000/svg">
<path d="M10.5 19C12.4969 18.9997 14.437 18.3353 16.0149 17.1114C17.5927 15.8874 18.7187 14.1735 19.2156 12.2394C19.7125 10.3053 19.552 8.26084 18.7594 6.42795C17.9669 4.59506 16.5872 3.0778 14.8377 2.11506C13.0882 1.15231 11.0682 0.798747 9.0957 1.11004C7.1232 1.42132 5.31024 2.37978 3.94225 3.83452C2.57425 5.28925 1.72892 7.15764 1.53932 9.14553C1.34973 11.1334 1.82665 13.1279 2.895 14.815L1.5 19L5.685 17.605C7.12458 18.5187 8.79496 19.0026 10.5 19Z" stroke="#6A6C6A" stroke-width="2" stroke-linecap="round" stroke-linejoin="round"/>
</svg>
