<svg width="14" height="14" viewBox="0 0 14 14" fill="none" xmlns="http://www.w3.org/2000/svg">
<path d="M10.9917 6.19999C10.7583 5.96666 10.4083 5.96666 10.175 6.19999L5.8 10.575L3.99167 8.76666C3.75833 8.53333 3.40833 8.53333 3.175 8.76666C2.94167 8.99999 2.94167 9.34999 3.175 9.58333L5.39167 11.8C5.50833 11.9167 5.625 11.975 5.8 11.975C5.975 11.975 6.09167 11.9167 6.20833 11.8L10.9917 7.01666C11.225 6.78333 11.225 6.43333 10.9917 6.19999Z" fill="#2483F0"/>
<path d="M11.075 2.175C10.8417 1.94167 10.4917 1.94167 10.2584 2.175L5.88337 6.55L4.07504 4.74167C3.84171 4.50833 3.49171 4.50833 3.25837 4.74167C3.02504 4.975 3.02504 5.325 3.25837 5.55833L5.47504 7.775C5.59171 7.89167 5.70837 7.95 5.88337 7.95C6.05837 7.95 6.17504 7.89167 6.29171 7.775L11.075 2.99167C11.3084 2.75833 11.3084 2.40833 11.075 2.175Z" fill="#2483F0"/>
</svg>
