<svg width="21" height="20" viewBox="0 0 21 20" fill="none" xmlns="http://www.w3.org/2000/svg">
<path d="M5.016 12.323L3.526 18.775C3.434 19.174 3.594 19.589 3.932 19.822C4.103 19.94 4.301 20 4.5 20C4.693 20 4.887 19.944 5.055 19.832L10.5 16.202L15.945 19.832C16.293 20.064 16.75 20.055 17.09 19.808C17.428 19.561 17.577 19.128 17.462 18.726L15.633 12.326L20.169 8.244C20.466 7.976 20.575 7.558 20.447 7.18C20.318 6.802 19.977 6.536 19.579 6.504L13.878 6.05L11.411 0.589C11.25 0.23 10.893 0 10.5 0C10.107 0 9.75 0.23 9.589 0.589L7.122 6.05L1.421 6.503C1.029 6.534 0.692001 6.791 0.560001 7.16C0.426001 7.529 0.522002 7.942 0.802002 8.216L5.016 12.323ZM7.869 7.997C8.232 7.968 8.552 7.744 8.701 7.411L10.5 3.43L12.299 7.411C12.448 7.744 12.768 7.968 13.131 7.997L17.103 8.312L13.832 11.256C13.548 11.512 13.435 11.906 13.539 12.274L14.792 16.659L11.056 14.168C10.72 13.943 10.283 13.943 9.947 14.168L6.043 16.771L7.093 12.225C7.171 11.885 7.067 11.528 6.817 11.285L3.779 8.323L7.869 7.997Z" fill="#6A6C6A"/>
</svg>
